# xmcd
#
# Track frame offsets: 
#        150
#        14822
#        32137
#        46418
#        62437
#        79447
#        97290
#
# Disc length: 1490 seconds
#
# Revision: 2
# Processed by: cddbd v1.5.2PL0 Copyright (c) Steve Scherf et al.
# Submitted via: ExactAudioCopy v1.0b3
#
DISCID=5f05d007
DTITLE=Hunter Hayes - The 21 Project [CD 1, Studio)
DYEAR=2015
DGENRE=Country
TTITLE0=21
TTITLE1=Young and In Love
TTITLE2=Saint or a Sinner
TTITLE3=Where It All Begins (feat. Lady Antebellum)
TTITLE4=Suitcase
TTITLE5=The Trouble with Love
TTITLE6=I Mean You
EXTD=YEAR: 2015
EXTT0=
EXTT1=
EXTT2=
EXTT3=
EXTT4=
EXTT5=
EXTT6=
PLAYORDER=
